<?xml version="1.0" standalone="no"?>
<!DOCTYPE svg PUBLIC "-//W3C//DTD SVG 20010904//EN"
 "http://www.w3.org/TR/2001/REC-SVG-20010904/DTD/svg10.dtd">
<svg version="1.0" xmlns="http://www.w3.org/2000/svg"
 width="332.000000pt" height="332.000000pt" viewBox="0 0 332.000000 332.000000"
 preserveAspectRatio="xMidYMid meet">
<metadata>
Created by potrace 1.14, written by Peter Selinger 2001-2017
</metadata>
<g transform="translate(0.000000,332.000000) scale(0.100000,-0.100000)"
fill="#000000" stroke="none">
<path d="M0 3225 l0 -95 95 0 95 0 0 -1470 0 -1470 -95 0 -95 0 0 -95 0 -95
95 0 95 0 0 95 0 95 1470 0 1470 0 0 -95 0 -95 95 0 95 0 0 95 0 95 -95 0 -95
0 0 1470 0 1470 95 0 95 0 0 95 0 95 -95 0 -95 0 0 -95 0 -95 -1470 0 -1470 0
0 95 0 95 -95 0 -95 0 0 -95z m2600 -985 l0 -590 -970 0 -970 0 0 590 0 590
970 0 970 0 0 -590z m-1550 -975 l0 -195 -195 0 -195 0 0 195 0 195 195 0 195
0 0 -195z m770 0 l0 -195 -190 0 -190 0 0 195 0 195 190 0 190 0 0 -195z m780
0 l0 -195 -195 0 -195 0 0 195 0 195 195 0 195 0 0 -195z m-1550 -580 l0 -195
-195 0 -195 0 0 195 0 195 195 0 195 0 0 -195z m770 0 l0 -195 -190 0 -190 0
0 195 0 195 190 0 190 0 0 -195z m780 0 l0 -195 -195 0 -195 0 0 195 0 195
195 0 195 0 0 -195z"/>
</g>
</svg>
